<?xml version="1.0" encoding="utf-8"?>
<!-- Generator: Adobe Illustrator 22.1.0, SVG Export Plug-In . SVG Version: 6.00 Build 0)  -->
<svg version="1.1" id="Layer_1" xmlns="http://www.w3.org/2000/svg" xmlns:xlink="http://www.w3.org/1999/xlink" x="0px" y="0px"
	 viewBox="0 0 330 188" style="enable-background:new 0 0 330 188;" xml:space="preserve">
<style type="text/css">
	.st0{fill:#F38223;}
	.st1{fill:#FFFFFF;}
	.st2{fill:#DC6E26;}
	.st3{fill:#FAA822;}
	.st4{fill:#FDE471;}
</style>
<g>
	<g>
		<path class="st0" d="M229.6,3.2c-1.8-0.6-72.2,0-72.2,0l45.4,45.4L229.6,3.2z"/>
		<path class="st1" d="M203.1,50.3L154.8,2.1l2.6,0c0.3,0,31.5-0.3,52.7-0.3C229,1.8,229.6,2,230,2.1l1.3,0.4L203.1,50.3z
			 M160.1,4.2l42.5,42.5l25.2-42.7c-2.1-0.1-7-0.1-17.7-0.1C192.5,4,168,4.2,160.1,4.2z"/>
	</g>
	<g>
		<path class="st0" d="M229.6,182c-1.8,0.6-72.2,0-72.2,0l45.4-45.4L229.6,182z"/>
		<path class="st2" d="M229.6,182l-26.8-45.4l-13.1,13.1c8.9,10.9,18.2,21.7,27.4,32.6C224.2,182.2,229.2,182.1,229.6,182z"/>
		<path class="st1" d="M210.1,183.3c-21.2,0-52.4-0.3-52.7-0.3l-2.6,0l48.2-48.2l28.2,47.8L230,183
			C229.6,183.1,229,183.3,210.1,183.3z M160.1,180.9c8,0.1,32.5,0.2,50,0.2c10.7,0,15.5-0.1,17.7-0.1l-25.2-42.7L160.1,180.9z"/>
	</g>
	<g>
		<polygon class="st3" points="42.4,170.3 16,89.2 92.6,139.4 		"/>
		<path class="st1" d="M41.8,172L14,86.6l80.6,52.8L41.8,172z M18,91.9l25,76.8l47.5-29.3L18,91.9z"/>
	</g>
	<g>
		<path class="st0" d="M172.4,107.9c-1.3,1.6-80.7,60-80.7,60v-59.5L172.4,107.9z"/>
		<path class="st2" d="M172.4,107.9l-80.7,0.5v44.5l65.3-33.3C165.8,113,172,108.3,172.4,107.9z"/>
		<path class="st1" d="M90.5,170.1v-62.7l84.1-0.6l-1.5,1.8c-1.3,1.6-67.7,50.4-80.9,60.2L90.5,170.1z M92.7,109.5v56.2
			c20.4-15,65.7-48.4,76.5-56.7L92.7,109.5z"/>
	</g>
	<g>
		<path class="st0" d="M72.2,26.8c0,0-31.8,147.4-30.9,145.1c0.9-2.2,84.2-48.8,84.2-48.8L73,31.4L72.2,26.8z"/>
		<path class="st2" d="M73,31.4l-0.8-4.6c0,0-1.6,7.5-4.1,19.1l-3.3,111.6c24.9-14.4,60.7-34.4,60.7-34.4L73,31.4z"/>
		<path class="st1" d="M42,173.3l-1-0.3c-0.6-0.2-0.8-0.2-0.7-1.5l0,0l0,0c0.1-1,0.5-2.8,1.1-6.1c0.8-4,2-9.7,3.5-16.5
			c2.9-13.6,6.8-31.8,10.6-49.9c7.8-36.3,15.6-72.5,15.6-72.5l2.1,0.5c-0.3,1.6-0.7,3.2-1,4.8l1.7-1l53.1,92.7l-1,0.5
			c-32.2,18-80.8,45.6-83.8,48.4L42,173.3z M72.2,32.2c-9.8,45.6-26.3,122-29.3,137.2c3.9-2.6,14-8.6,40.3-23.7
			c18.2-10.3,36.5-20.6,40.8-23L72.2,32.2z"/>
	</g>
	<g>
		
			<rect x="164.3" y="28.2" transform="matrix(0.7071 -0.7071 0.7071 0.7071 1.7646 188.2595)" class="st3" width="127.6" height="127.6"/>
		<path class="st1" d="M228.1,183.8L136.3,92l91.8-91.8L319.9,92L228.1,183.8z M139.4,92l88.7,88.7L316.8,92L228.1,3.3L139.4,92z"/>
	</g>
	<g>
		<path class="st3" d="M169.7,124.2c-2-2-97.8-97.8-97.8-97.8v97.1L169.7,124.2z"/>
		<path class="st4" d="M84,38.5c-7.3-7.3-12-12-12-12v12H84z"/>
		<polygon class="st4" points="71.9,45.1 71.9,50.9 96.4,50.9 90.5,45.1 		"/>
		<path class="st4" d="M107,61.5h-35v9.1h44.2C113,67.6,109.9,64.5,107,61.5z"/>
		<polygon class="st4" points="127,81.6 71.9,81.6 71.9,91.8 137.3,91.8 		"/>
		<polygon class="st4" points="146.4,101 71.9,101 71.9,109 154.4,109 		"/>
		<path class="st4" d="M161,115.6H71.9v8l97.8,0.7C169.3,123.9,166.1,120.7,161,115.6z"/>
		<path class="st1" d="M172.3,125.4l-101.5-0.7V23.9L172.3,125.4z M73,122.5l94,0.6l-94-94V122.5z"/>
	</g>
</g>
</svg>
